<?xml version="1.0" standalone="no"?><!DOCTYPE svg PUBLIC "-//W3C//DTD SVG 1.1//EN" "http://www.w3.org/Graphics/SVG/1.1/DTD/svg11.dtd"><svg t="1779594685374" class="icon" viewBox="0 0 1024 1024" version="1.1" xmlns="http://www.w3.org/2000/svg" p-id="32162" xmlns:xlink="http://www.w3.org/1999/xlink" width="128" height="128"><path d="M916.650667 785.578667a31.829333 31.829333 0 0 1-31.914667-31.914667V204.8a64 64 0 0 0-63.914667-63.914667H246.954667a31.914667 31.914667 0 0 1 0-63.829333h573.866666a128 128 0 0 1 128 128v548.608a31.914667 31.914667 0 0 1-32.170666 31.914667z" fill="#1990FF" p-id="32163"></path><path d="M732.928 947.2h-546.986667A110.933333 110.933333 0 0 1 75.434667 836.266667V290.133333a110.933333 110.933333 0 0 1 110.506666-110.933333h546.986667a110.933333 110.933333 0 0 1 110.933333 110.933333v546.645334a110.933333 110.933333 0 0 1-110.933333 110.421333z m-546.986667-699.733333a42.666667 42.666667 0 0 0-42.24 42.666666v546.645334a42.666667 42.666667 0 0 0 42.24 42.666666h546.986667a42.666667 42.666667 0 0 0 42.666667-42.666666V290.133333a42.666667 42.666667 0 0 0-42.666667-42.24z" fill="#1990FF" p-id="32164"></path><path d="M595.968 597.333333h-273.066667a34.133333 34.133333 0 0 1 0-68.266666h273.066667a34.133333 34.133333 0 1 1 0 68.266666z" fill="#1990FF" p-id="32165"></path><path d="M459.434667 735.317333a34.133333 34.133333 0 0 1-34.133334-34.133333V425.472a34.133333 34.133333 0 0 1 68.266667 0v275.712a34.133333 34.133333 0 0 1-34.133333 34.133333z" fill="#1990FF" p-id="32166"></path></svg>