<?xml version="1.0" standalone="no"?><!DOCTYPE svg PUBLIC "-//W3C//DTD SVG 1.1//EN" "http://www.w3.org/Graphics/SVG/1.1/DTD/svg11.dtd"><svg t="1779606085949" class="icon" viewBox="0 0 1024 1024" version="1.1" xmlns="http://www.w3.org/2000/svg" p-id="104775" xmlns:xlink="http://www.w3.org/1999/xlink" width="128" height="128"><path d="M653.88544 0a92.16 92.16 0 0 1 65.09568 26.9312l187.61728 187.21792a92.16 92.16 0 0 1 27.05408 65.2288v120.6272A80.10752 80.10752 0 0 1 1013.76 480.09216v319.7952a80.10752 80.10752 0 0 1-77.55776 80.06656l-2.54976 0.03072v48.00512c0 53.02272-43.02848 96-96.12288 96H196.7104c-53.0944 0-96.12288-42.97728-96.12288-96v-48.00512A80.10752 80.10752 0 0 1 20.48 799.8976v-319.7952a80.10752 80.10752 0 0 1 77.55776-80.06656l2.54976-0.04096V96C100.58752 42.97728 143.616 0 196.7104 0h457.17504zM837.5296 879.99488H196.7104v17.28512a30.72 30.72 0 0 0 30.72 30.72h579.3792a30.72 30.72 0 0 0 30.72-30.72v-17.28512zM440.2176 555.56096c-18.83136 0-34.80576 2.3552-47.9232 7.08608a88.22784 88.22784 0 0 0-34.31424 22.38464 79.59552 79.59552 0 0 0-17.7152 27.72992 94.8224 94.8224 0 0 0-6.02112 34.03776c0 24.00256 7.1168 42.63936 21.37088 55.9104 14.25408 13.27104 34.304 19.9168 60.19072 19.9168 10.72128 0 20.5824-0.65536 29.58336-1.97632a150.016 150.016 0 0 0 25.42592-5.89824l18.90304-88.43264h-66.60096L416.91136 655.36h26.32704l-7.19872 33.41312a89.8048 89.8048 0 0 1-9.00096 1.85344c-2.7648 0.4096-5.46816 0.6144-8.0896 0.6144-12.9024 0-23.04-3.8912-30.38208-11.69408-7.35232-7.80288-11.02848-18.56512-11.02848-32.28672 0-18.83136 6.00064-33.6384 18.00192-44.4416 12.00128-10.79296 28.5696-16.19968 49.72544-16.19968 6.97344 0 13.6704 0.80896 20.08064 2.41664a80.86528 80.86528 0 0 1 18.61632 7.26016l9.22624-32.84992a146.4832 146.4832 0 0 0-25.31328-5.95968 192.45056 192.45056 0 0 0-27.66848-1.91488z m136.68352 3.93216h-42.63936L500.16256 719.36h42.63936l34.08896-159.86688z m139.83744 0H609.85344L575.76448 719.36h42.63936l13.7216-65.69984h61.99296l6.2976-29.92128h-61.75744l7.08608-34.53952h64.57344l6.41024-29.696zM608.33792 88.32H227.4304a30.72 30.72 0 0 0-30.72 30.72v280.95488h640.8192v-81.5616H700.52864c-50.8928-0.01024-92.14976-41.2672-92.16-92.16l-0.03072-137.95328z m96.12288 59.84256v58.91072a15.36 15.36 0 0 0 15.36 15.36h59.0848l-74.4448-74.27072z" fill="#26B99A" p-id="104776"></path></svg>