<?xml version="1.0" standalone="no"?><!DOCTYPE svg PUBLIC "-//W3C//DTD SVG 1.1//EN" "http://www.w3.org/Graphics/SVG/1.1/DTD/svg11.dtd"><svg t="1779595323974" class="icon" viewBox="0 0 1092 1024" version="1.1" xmlns="http://www.w3.org/2000/svg" p-id="65082" xmlns:xlink="http://www.w3.org/1999/xlink" width="136.5" height="128"><path d="M784.520533 862.344533a54.272 54.272 0 0 0 81.169067 46.6944 53.8624 53.8624 0 0 0 0-93.3888 54.272 54.272 0 0 0-54.0672 0 53.8624 53.8624 0 0 0-27.101867 46.6944z" fill="#5D75F7" p-id="65083"></path><path d="M835.3792 943.172267c-49.425067 0-87.995733-35.362133-87.995733-80.896 0-45.4656 38.434133-80.964267 87.995733-80.964267 49.425067 0 87.927467 35.362133 87.927467 80.964267-0.136533 45.533867-38.5024 80.896-87.927467 80.896z m-263.7824-20.206934c0 10.103467-10.990933 20.206933-22.050133 20.206934-10.990933 0-21.981867-10.103467-21.981867-20.206934v-121.309866c0-10.103467 10.922667-20.206933 21.981867-20.206934s22.050133 10.103467 22.050133 20.206934v121.309866z m-87.995733 0c0 10.103467-10.990933 20.206933-21.981867 20.206934-11.0592 0-22.050133-10.103467-22.050133-20.206934v-121.309866c0-10.103467 10.990933-20.206933 22.050133-20.206934 10.990933 0 21.981867 10.103467 21.981867 20.206934v121.309866z m-87.927467 0c0 10.103467-11.0592 20.206933-22.050133 20.206934s-22.050133-10.103467-22.050134-20.206934v-121.309866c0-10.103467 11.0592-20.206933 22.050134-20.206934s22.050133 10.103467 22.050133 20.206934v121.309866z m-87.8592 0c0 10.103467-10.990933 20.206933-22.050133 20.206934-10.922667 0-21.981867-10.103467-21.981867-20.206934v-121.309866c0-10.103467 10.990933-20.206933 21.981867-20.206934 11.0592 0 22.050133 10.103467 22.050133 20.206934v121.309866z m-87.927467 0c0 10.103467-11.0592 20.206933-22.050133 20.206934-11.0592 0-22.050133-10.103467-22.050133-20.206934v-121.309866c0-10.103467 10.990933-20.206933 22.050133-20.206934 10.990933 0 22.050133 10.103467 22.050133 20.206934v121.309866z m-88.064 0c0 10.103467-10.922667 20.206933-21.981866 20.206934-10.990933 0-21.981867-10.103467-21.981867-20.206934v-121.309866c0-10.103467 10.922667-20.206933 21.981867-20.206934s22.050133 10.103467 22.050133 20.206934v121.309866z m923.2384-166.775466c0-30.3104-22.050133-50.517333-54.8864-55.569067H54.954667a67.106133 67.106133 0 0 0-54.954667 55.569067v207.189333c0 30.3104 33.041067 60.6208 65.9456 60.6208h923.170133c38.434133 0 65.9456-30.3104 65.9456-60.6208V756.189867zM273.066667 350.344533c0 48.128 48.7424 92.5696 127.863466 116.667734 79.189333 24.029867 176.605867 24.029867 255.726934 0 79.189333-24.098133 127.863467-68.539733 127.863466-116.736 0-74.410667-114.4832-134.690133-255.726933-134.690134S273.066667 275.933867 273.066667 350.344533z" fill="#5D75F7" p-id="65084"></path><path d="M527.428267 169.642667c181.521067 0 317.713067 84.718933 317.713066 190.8736 0 106.0864-136.192 190.8736-317.713066 190.8736-175.854933 0-317.6448-84.7872-317.6448-190.8736 0-106.154667 141.789867-190.8736 317.6448-190.8736zM45.329067 636.1088h981.333333c11.400533 5.256533 22.596267 5.256533 28.398933 10.6496L947.268267 58.299733C935.936 26.487467 901.870933 0 867.9424 0h-680.618667c-34.133333 0-68.130133 26.487467-73.728 58.299733L0 646.7584c11.400533-5.256533 17.066667-5.256533 28.398933-10.6496h16.930134z" fill="#5D75F7" p-id="65085"></path></svg>