<?xml version="1.0" standalone="no"?><!DOCTYPE svg PUBLIC "-//W3C//DTD SVG 1.1//EN" "http://www.w3.org/Graphics/SVG/1.1/DTD/svg11.dtd"><svg t="1779592978182" class="icon" viewBox="0 0 1205 1024" version="1.1" xmlns="http://www.w3.org/2000/svg" p-id="10776" xmlns:xlink="http://www.w3.org/1999/xlink" width="150.625" height="128"><path d="M0.578798 60.202589A60.202589 60.202589 0 0 1 60.781387 0H472.755966a60.202589 60.202589 0 0 1 55.303751 36.475686l29.511073 68.878845h586.916219A60.202589 60.202589 0 0 1 1204.630576 165.262009v632.363272a60.202589 60.202589 0 0 1-60.202589 60.202589H60.781387A60.202589 60.202589 0 0 1 0.578798 797.625281z" fill="#FFA000" p-id="10777"></path><path d="M166.135918 203.154226h872.819494a53.119931 53.119931 0 0 1 60.202589 60.202589v541.823301a53.119931 53.119931 0 0 1-60.202589 60.202588H166.135918a53.119931 53.119931 0 0 1-60.202589-60.202588v-541.823301a53.119931 53.119931 0 0 1 60.202589-60.202589z" fill="#FFFFFF" p-id="10778"></path><path d="M60.781387 300.953922h1083.528556a53.119931 53.119931 0 0 1 60.202589 60.202589v602.025889a53.119931 53.119931 0 0 1-60.202589 60.202589H60.781387A53.119931 53.119931 0 0 1 0.578798 963.123378v-602.025889a53.119931 53.119931 0 0 1 60.202589-60.202589z" fill="#FFCA28" p-id="10779"></path><path d="M577.166142 820.880006v-126.661525H450.799728a25.143434 25.143434 0 0 1-25.261479-25.143434 25.438545 25.438545 0 0 1 25.261479-25.497567h126.366414V517.211065a25.497567 25.497567 0 0 1 25.497567-25.497567 25.202456 25.202456 0 0 1 25.143434 25.497567v126.366415h126.661526a25.438545 25.438545 0 0 1 25.143434 25.497567 25.143434 25.143434 0 0 1-25.143434 25.143434h-126.661526v126.661525a25.02539 25.02539 0 0 1-25.143434 25.143435 25.320501 25.320501 0 0 1-25.497567-25.143435z" fill="#FFFFFF" p-id="10780"></path></svg>