<?xml version="1.0" standalone="no"?><!DOCTYPE svg PUBLIC "-//W3C//DTD SVG 1.1//EN" "http://www.w3.org/Graphics/SVG/1.1/DTD/svg11.dtd"><svg t="1779594645821" class="icon" viewBox="0 0 1024 1024" version="1.1" xmlns="http://www.w3.org/2000/svg" p-id="28412" xmlns:xlink="http://www.w3.org/1999/xlink" width="128" height="128"><path d="M815.48 252.63h-45c-13.81 0-25-11.19-25-25s11.19-25 25-25h45c13.81 0 25 11.19 25 25s-11.19 25-25 25zM734 905.29h-90.88c-13.81 0-25-11.19-25-25s11.19-25 25-25H734c13.81 0 25 11.19 25 25s-11.2 25-25 25z m-181.77 0h-90.88c-13.81 0-25-11.19-25-25s11.19-25 25-25h90.88c13.81 0 25 11.19 25 25s-11.19 25-25 25z m-181.76 0h-79.95c-5.17 0-10.36-0.47-15.42-1.41-13.58-2.51-22.55-15.55-20.04-29.13 2.51-13.58 15.55-22.54 29.13-20.04 2.07 0.38 4.19 0.58 6.32 0.58h79.95c13.81 0 25 11.19 25 25s-11.18 25-24.99 25z m454.39-0.02c-13.48 0-24.59-10.73-24.98-24.3-0.39-13.8 10.48-25.31 24.29-25.69 18.56-0.52 33.49-15.47 33.99-34.02 0.38-13.8 11.84-24.7 25.67-24.31 13.8 0.38 24.69 11.87 24.31 25.67-1.23 45.07-37.49 81.38-82.56 82.65-0.24-0.01-0.48 0-0.72 0z m58.32-149.22c-13.81 0-25-11.19-25-25v-90.88c0-13.81 11.19-25 25-25s25 11.19 25 25v90.88c0 13.81-11.2 25-25 25z m0-181.76c-13.81 0-25-11.19-25-25v-90.88c0-13.81 11.19-25 25-25s25 11.19 25 25v90.88c0 13.81-11.2 25-25 25z m0-181.76c-13.81 0-25-11.19-25-25v-79.89c0-2.14-0.2-4.28-0.58-6.36-2.52-13.57 6.44-26.62 20.01-29.15 13.57-2.52 26.62 6.44 29.15 20.01 0.95 5.09 1.42 10.3 1.42 15.5v79.89c0 13.8-11.2 25-25 25zM230.52 837.6c-13.81 0-25-11.19-25-25v-45c0-13.81 11.19-25 25-25s25 11.19 25 25v45c0 13.8-11.19 25-25 25z" fill="#2C5CCB" p-id="28413"></path><path d="M710.48 114.94H177.82c-33 0-60 27-60 60V707.6c0 33 27 60 60 60h532.66c33 0 60-27 60-60V174.94c0-33-27-60-60-60zM460.17 602.53H262.2c-13.81 0-25-11.19-25-25s11.19-25 25-25h197.97c13.81 0 25 11.19 25 25s-11.2 25-25 25z m165.94-136.26H262.2c-13.81 0-25-11.19-25-25s11.19-25 25-25h363.91c13.81 0 25 11.19 25 25s-11.19 25-25 25z m0-136.27H262.2c-13.81 0-25-11.19-25-25s11.19-25 25-25h363.91c13.81 0 25 11.19 25 25s-11.19 25-25 25z" fill="#2C5CCB" p-id="28414"></path></svg>