<?xml version="1.0" encoding="UTF-8"?>
<svg xmlns="http://www.w3.org/2000/svg" viewBox="0 0 16 16" fill="none">
  <path fill="currentColor" d="M14.6,4.4l-3.9-3.9C10.4,0.2,10,0,9.6,0H6C4.9,0,4,0.9,4,2v4h1V2c0-0.6,0.4-1,1-1h3v3.5C9,5.3,9.7,6,10.5,6H14v7c0,0.6-0.4,1-1,1h-2c0,0.4-0.1,0.7-0.2,1H13c1.1,0,2-0.9,2-2V5.4C15,5,14.8,4.6,14.6,4.4z M10.5,5C10.2,5,10,4.8,10,4.5V1.2L13.8,5H10.5z M7.5,9h-5C2.2,9,2,9.2,2,9.5S2.2,10,2.5,10h5C7.8,10,8,9.8,8,9.5S7.8,9,7.5,9z M7.5,11h-5C2.2,11,2,11.2,2,11.5S2.2,12,2.5,12h5C7.8,12,8,11.8,8,11.5S7.8,11,7.5,11z M7.5,13h-5C2.2,13,2,13.2,2,13.5S2.2,14,2.5,14h5C7.8,14,8,13.8,8,13.5S7.8,13,7.5,13z M8,7H2C0.9,7,0,7.9,0,9v5c0,1.1,0.9,2,2,2h6c1.1,0,2-0.9,2-2V9C10,7.9,9.1,7,8,7z M9,14c0,0.6-0.4,1-1,1H2c-0.6,0-1-0.4-1-1V9c0-0.6,0.4-1,1-1h6c0.6,0,1,0.4,1,1V14z"/>
</svg>
