<?xml version="1.0" encoding="UTF-8"?>
<svg xmlns="http://www.w3.org/2000/svg" viewBox="0 0 16 16" fill="none">
  <path fill="currentColor" d="m14.5,2c-.28,0-.5.22-.5.5v9c0,.83-.67,1.5-1.5,1.5H3.5c-.83,0-1.5-.67-1.5-1.5V2.5c0-.28-.22-.5-.5-.5s-.5.22-.5.5v9c0,1.38,1.12,2.5,2.5,2.5h9c1.38,0,2.5-1.12,2.5-2.5V2.5c0-.28-.22-.5-.5-.5ZM4.5,11h7c.28,0,.5-.22.5-.5s-.22-.5-.5-.5h-7c-.28,0-.5.22-.5.5s.22.5.5.5Zm0-3h7c.28,0,.5-.22.5-.5s-.22-.5-.5-.5h-7c-.28,0-.5.22-.5.5s.22.5.5.5Zm0-3h7c.28,0,.5-.22.5-.5s-.22-.5-.5-.5h-7c-.28,0-.5.22-.5.5s.22.5.5.5Z"/>
</svg>
