<?xml version="1.0" encoding="UTF-8"?>
<svg xmlns="http://www.w3.org/2000/svg" viewBox="0 0 16 16" fill="none">
  <path fill="currentColor" d="m2.5,2c.28,0,.5-.22.5-.5s-.22-.5-.5-.5H.5c-.28,0-.5.22-.5.5v5c0,.28.22.5.5.5h2c.28,0,.5-.22.5-.5s-.22-.5-.5-.5h-1.5V2h1.5Zm0,8c.28,0,.5-.22.5-.5s-.22-.5-.5-.5H.5c-.28,0-.5.22-.5.5v5c0,.28.22.5.5.5h2c.28,0,.5-.22.5-.5s-.22-.5-.5-.5h-1.5v-4h1.5Zm2-7h11c.28,0,.5-.22.5-.5s-.22-.5-.5-.5H4.5c-.28,0-.5.22-.5.5s.22.5.5.5Zm11,7H4.5c-.28,0-.5.22-.5.5s.22.5.5.5h11c.28,0,.5-.22.5-.5s-.22-.5-.5-.5Zm0-5H4.5c-.28,0-.5.22-.5.5s.22.5.5.5h11c.28,0,.5-.22.5-.5s-.22-.5-.5-.5Zm0,8H4.5c-.28,0-.5.22-.5.5s.22.5.5.5h11c.28,0,.5-.22.5-.5s-.22-.5-.5-.5Z"/>
</svg>
