<?xml version="1.0" encoding="UTF-8"?>
<svg xmlns="http://www.w3.org/2000/svg" viewBox="0 0 16 16" fill="none">
  <path fill="currentColor" d="m18.5,6c-.83,0-1.5.67-1.5,1.5s.67,1.5,1.5,1.5,1.5-.67,1.5-1.5-.67-1.5-1.5-1.5Zm1-4h-11c-2.49,0-4.5,2.01-4.5,4.5v11c0,2.49,2.01,4.5,4.5,4.5h11c2.49,0,4.5-2.01,4.5-4.5V6.5c0-2.49-2.01-4.5-4.5-4.5Zm0,19h-11c-.79,0-1.51-.26-2.1-.7l7.1-7.1c.27-.27.72-.27.99,0l7.1,7.1c-.58.44-1.31.7-2.1.7Zm3.5-3.5c0,.79-.26,1.51-.7,2.1l-7.1-7.1c-.66-.66-1.74-.66-2.4,0l-7.1,7.1c-.44-.58-.7-1.31-.7-2.1V6.5c0-1.93,1.57-3.5,3.5-3.5h11c1.93,0,3.5,1.57,3.5,3.5v11Zm-1.5,7.5H6.5c-.28,0-.5.22-.5.5s.22.5.5.5h15c.28,0,.5-.22.5-.5s-.22-.5-.5-.5Z"/>
</svg>
