<?xml version="1.0" encoding="UTF-8"?>
<svg xmlns="http://www.w3.org/2000/svg" viewBox="0 0 16 16" fill="none">
  <path fill="currentColor" d="m17.5,10c.83,0,1.5-.67,1.5-1.5s-.67-1.5-1.5-1.5-1.5.67-1.5,1.5.67,1.5,1.5,1.5Zm-7.75,10h8.5c2.07,0,3.75-1.68,3.75-3.75V7.75c0-2.07-1.68-3.75-3.75-3.75h-8.5c-2.07,0-3.75,1.68-3.75,3.75v8.5c0,2.07,1.68,3.75,3.75,3.75Zm8.5-1h-8.5c-.58,0-1.12-.18-1.56-.48l5.28-5.28c.29-.29.77-.29,1.06,0l5.28,5.28c-.44.31-.98.48-1.56.48ZM7,7.75c0-1.52,1.23-2.75,2.75-2.75h8.5c1.52,0,2.75,1.23,2.75,2.75v8.5c0,.58-.18,1.12-.48,1.56l-5.28-5.28c-.68-.68-1.79-.68-2.47,0l-5.28,5.28c-.31-.44-.48-.98-.48-1.56V7.75Zm16.5,15.25H4.5c-.28,0-.5.22-.5.5s.22.5.5.5h19c.28,0,.5-.22.5-.5s-.22-.5-.5-.5Z"/>
</svg>
