<?xml version="1.0" encoding="UTF-8"?>
<svg xmlns="http://www.w3.org/2000/svg" viewBox="0 0 16 16" fill="none">
  <path fill="currentColor" d="m16.5,8.5c.55,0,1-.45,1-1s-.45-1-1-1-1,.45-1,1,.45,1,1,1Zm-6,7.5h7c1.38,0,2.5-1.12,2.5-2.5v-7c0-1.38-1.12-2.5-2.5-2.5h-7c-1.38,0-2.5,1.12-2.5,2.5v7c0,1.38,1.12,2.5,2.5,2.5Zm7-1h-7c-.23,0-.45-.05-.65-.15l3.65-3.65c.27-.27.72-.27.99,0l3.65,3.65c-.2.09-.42.15-.65.15ZM9,6.5c0-.83.67-1.5,1.5-1.5h7c.83,0,1.5.67,1.5,1.5v7c0,.23-.05.45-.15.65l-3.65-3.65c-.66-.66-1.74-.66-2.4,0l-3.65,3.65c-.09-.2-.15-.42-.15-.65v-7Zm12.5,12.5H6.5c-.28,0-.5.22-.5.5s.22.5.5.5h15c.28,0,.5-.22.5-.5s-.22-.5-.5-.5Zm-2,4h-11c-.28,0-.5.22-.5.5s.22.5.5.5h11c.28,0,.5-.22.5-.5s-.22-.5-.5-.5Z"/>
</svg>
