<?xml version="1.0" encoding="UTF-8"?>
<svg xmlns="http://www.w3.org/2000/svg" viewBox="0 0 16 16" fill="none">
  <path fill="currentColor" d="m6.75,3h-1.5c-1.24,0-2.25,1.01-2.25,2.25v1.5c0,1.24,1.01,2.25,2.25,2.25h1.5c1.24,0,2.25-1.01,2.25-2.25v-1.5c0-1.24-1.01-2.25-2.25-2.25Zm1.25,3.75c0,.69-.56,1.25-1.25,1.25h-1.5c-.69,0-1.25-.56-1.25-1.25v-1.5c0-.69.56-1.25,1.25-1.25h1.5c.69,0,1.25.56,1.25,1.25v1.5Zm-1.25,4.25h-1.5c-1.24,0-2.25,1.01-2.25,2.25v1.5c0,1.24,1.01,2.25,2.25,2.25h1.5c1.24,0,2.25-1.01,2.25-2.25v-1.5c0-1.24-1.01-2.25-2.25-2.25Zm1.25,3.75c0,.69-.56,1.25-1.25,1.25h-1.5c-.69,0-1.25-.56-1.25-1.25v-1.5c0-.69.56-1.25,1.25-1.25h1.5c.69,0,1.25.56,1.25,1.25v1.5Zm-1.25,4.25h-1.5c-1.24,0-2.25,1.01-2.25,2.25v1.5c0,1.24,1.01,2.25,2.25,2.25h1.5c1.24,0,2.25-1.01,2.25-2.25v-1.5c0-1.24-1.01-2.25-2.25-2.25Zm1.25,3.75c0,.69-.56,1.25-1.25,1.25h-1.5c-.69,0-1.25-.56-1.25-1.25v-1.5c0-.69.56-1.25,1.25-1.25h1.5c.69,0,1.25.56,1.25,1.25v1.5ZM12.5,6h12c.28,0,.5-.22.5-.5s-.22-.5-.5-.5h-12c-.28,0-.5.22-.5.5s.22.5.5.5Zm12,7h-12c-.28,0-.5.22-.5.5s.22.5.5.5h12c.28,0,.5-.22.5-.5s-.22-.5-.5-.5Zm0,8h-12c-.28,0-.5.22-.5.5s.22.5.5.5h12c.28,0,.5-.22.5-.5s-.22-.5-.5-.5Z"/>
</svg>
