<?xml version="1.0" encoding="UTF-8"?>
<svg xmlns="http://www.w3.org/2000/svg" viewBox="0 0 16 16" fill="none">
  <path fill="currentColor" d="m9.5,6c-.28,0-.5.22-.5.5v15c0,.28.22.5.5.5s.5-.22.5-.5V6.5c0-.28-.22-.5-.5-.5Zm9,0c-.28,0-.5.22-.5.5v15c0,.28.22.5.5.5s.5-.22.5-.5V6.5c0-.28-.22-.5-.5-.5Zm4.75-2H4.75c-1.52,0-2.75,1.23-2.75,2.75v14.5c0,1.52,1.23,2.75,2.75,2.75h18.5c1.52,0,2.75-1.23,2.75-2.75V6.75c0-1.52-1.23-2.75-2.75-2.75Zm1.75,17.25c0,.97-.78,1.75-1.75,1.75H4.75c-.97,0-1.75-.78-1.75-1.75V6.75c0-.97.78-1.75,1.75-1.75h18.5c.97,0,1.75.78,1.75,1.75v14.5Z"/>
</svg>
