<?xml version="1.0" encoding="UTF-8"?>
<svg xmlns="http://www.w3.org/2000/svg" viewBox="0 0 16 16" fill="none">
  <path fill="currentColor" d="m11.5,6H3.5c-.28,0-.5.22-.5.5s.22.5.5.5h8c.28,0,.5-.22.5-.5s-.22-.5-.5-.5Zm5,1h8c.28,0,.5-.22.5-.5s-.22-.5-.5-.5h-8c-.28,0-.5.22-.5.5s.22.5.5.5Zm-5,4H3.5c-.28,0-.5.22-.5.5s.22.5.5.5h8c.28,0,.5-.22.5-.5s-.22-.5-.5-.5Zm13,0h-8c-.28,0-.5.22-.5.5s.22.5.5.5h8c.28,0,.5-.22.5-.5s-.22-.5-.5-.5Zm-13,5H3.5c-.28,0-.5.22-.5.5s.22.5.5.5h8c.28,0,.5-.22.5-.5s-.22-.5-.5-.5Zm13,0h-8c-.28,0-.5.22-.5.5s.22.5.5.5h8c.28,0,.5-.22.5-.5s-.22-.5-.5-.5Zm-13,5H3.5c-.28,0-.5.22-.5.5s.22.5.5.5h8c.28,0,.5-.22.5-.5s-.22-.5-.5-.5Zm13,0h-8c-.28,0-.5.22-.5.5s.22.5.5.5h8c.28,0,.5-.22.5-.5s-.22-.5-.5-.5Z"/>
</svg>
