<?xml version="1.0" encoding="UTF-8"?>
<svg xmlns="http://www.w3.org/2000/svg" viewBox="0 0 16 16" fill="none">
  <path fill="currentColor" d="m6.85,4.15c-.2-.2-.51-.2-.71,0l-2.15,2.15v-2.29c0-1.66,1.34-3,3-3h2.5c.28,0,.5-.22.5-.5s-.22-.5-.5-.5h-2.5C4.79,0,3,1.79,3,4v2.29L.85,4.15c-.2-.2-.51-.2-.71,0-.2.2-.2.51,0,.71l3,3c.2.2.51.2.71,0l3-3c.2-.2.2-.51,0-.71Zm2.15,3.85c-.55,0-1,.45-1,1s.45,1,1,1,1-.45,1-1-.45-1-1-1Zm4.5-2h-5c-1.38,0-2.5,1.12-2.5,2.5v5c0,1.38,1.12,2.5,2.5,2.5h5c1.38,0,2.5-1.12,2.5-2.5v-5c0-1.38-1.12-2.5-2.5-2.5Zm0,9h-5c-.83,0-1.5-.67-1.5-1.5v-5c0-.83.67-1.5,1.5-1.5h5c.23,0,.45.05.65.15l-2.64,2.64c-.67.67-.67,1.75,0,2.42l2.64,2.64c-.2.09-.42.15-.65.15Zm1.5-1.5c0,.23-.05.45-.15.65l-2.64-2.64c-.28-.28-.28-.73,0-1l2.64-2.64c.09.2.15.42.15.65v5Z"/>
</svg>
