<?xml version="1.0" encoding="UTF-8"?>
<svg xmlns="http://www.w3.org/2000/svg" viewBox="0 0 16 16" fill="none">
  <path fill="currentColor" d="m15.85,4.15c-.2-.2-.51-.2-.71,0l-2.15,2.15v-2.29c0-2.21-1.79-4-4-4h-2.5c-.28,0-.5.22-.5.5s.22.5.5.5h2.5c1.66,0,3,1.34,3,3v2.29l-2.15-2.15c-.2-.2-.51-.2-.71,0s-.2.51,0,.71l3,3c.2.2.51.2.71,0l3-3c.2-.2.2-.51,0-.71Zm-8.85,7.85c-.55,0-1,.45-1,1s.45,1,1,1,1-.45,1-1-.45-1-1-1Zm.5-6H2.5c-1.38,0-2.5,1.12-2.5,2.5v5c0,1.38,1.12,2.5,2.5,2.5h5c1.38,0,2.5-1.12,2.5-2.5v-5c0-1.38-1.12-2.5-2.5-2.5ZM1,13.5v-5c0-.23.05-.45.15-.65l2.64,2.64c.28.28.28.73,0,1l-2.64,2.64c-.09-.2-.15-.42-.15-.65Zm8,0c0,.83-.67,1.5-1.5,1.5H2.5c-.23,0-.45-.05-.65-.15l2.64-2.64c.67-.67.67-1.75,0-2.42l-2.64-2.64c.2-.09.42-.15.65-.15h5c.83,0,1.5.67,1.5,1.5v5Z"/>
</svg>
