<?xml version="1.0" encoding="UTF-8"?>
<svg xmlns="http://www.w3.org/2000/svg" viewBox="0 0 16 16" fill="none">
  <path fill="currentColor" d="m2.5,13c-.83,0-1.5-.67-1.5-1.5v-7.5h12v2.21c.35.1.68.23,1,.39V2.5c0-1.38-1.12-2.5-2.5-2.5H2.5C1.12,0,0,1.12,0,2.5v9c0,1.38,1.12,2.5,2.5,2.5h4.1c-.16-.32-.29-.65-.39-1h-3.71ZM1,2.5c0-.83.67-1.5,1.5-1.5h9c.83,0,1.5.67,1.5,1.5v.5H1v-.5Zm13.68,5.82c-.84-.84-1.99-1.32-3.18-1.32s-2.34.47-3.18,1.32c-.84.84-1.32,1.99-1.32,3.18s.47,2.34,1.32,3.18c.84.84,1.99,1.32,3.18,1.32s2.34-.47,3.18-1.32c.84-.84,1.32-1.99,1.32-3.18s-.47-2.34-1.32-3.18Zm-.83,3.54c-.09.09-.22.15-.35.15h-1.5v1.5c0,.13-.05.26-.15.35s-.22.15-.35.15-.26-.05-.35-.15-.15-.22-.15-.35v-1.5h-1.5c-.13,0-.26-.05-.35-.15-.09-.09-.15-.22-.15-.35s.05-.26.15-.35c.09-.09.22-.15.35-.15h1.5v-1.5c0-.13.05-.26.15-.35.09-.09.22-.15.35-.15s.26.05.35.15c.09.09.15.22.15.35v1.5h1.5c.13,0,.26.05.35.15s.15.22.15.35-.05.26-.15.35Z"/>
</svg>
