<?xml version="1.0" encoding="UTF-8"?>
<svg xmlns="http://www.w3.org/2000/svg" viewBox="0 0 16 16" fill="none">
  <path fill="currentColor" d="m3,14c-1.1,0-2-.9-2-2V3c0-1.1.9-2,2-2h9c1.1,0,2,.9,2,2v3.6c.35.18.69.4,1,.66V3c0-1.66-1.34-3-3-3H3C1.34,0,0,1.34,0,3v9c0,1.66,1.34,3,3,3h4.26c-.26-.31-.48-.65-.66-1h-3.6Zm11.68-5.68c-.84-.84-1.99-1.32-3.18-1.32s-2.34.47-3.18,1.32c-.84.84-1.32,1.99-1.32,3.18s.47,2.34,1.32,3.18c.84.84,1.99,1.32,3.18,1.32s2.34-.47,3.18-1.32c.84-.84,1.32-1.99,1.32-3.18s-.47-2.34-1.32-3.18Zm-1.18,3.68h-1.5v1.5c0,.28-.22.5-.5.5s-.5-.22-.5-.5v-1.5h-1.5c-.28,0-.5-.22-.5-.5s.22-.5.5-.5h1.5v-1.5c0-.28.22-.5.5-.5s.5.22.5.5v1.5h1.5c.28,0,.5.22.5.5s-.22.5-.5.5Z"/>
</svg>
