<?xml version="1.0" encoding="UTF-8"?>
<svg xmlns="http://www.w3.org/2000/svg" viewBox="0 0 16 16" fill="none">
  <path fill="currentColor" d="m4,1c-1.66,0-3,1.34-3,3v8c0,1.66,1.34,3,3,3h8c1.66,0,3-1.34,3-3V4c0-1.66-1.34-3-3-3H4Zm7.71,13l-2.47-2.47c-.68-.68-1.79-.68-2.47,0l-2.47,2.47h-.29c-1.1,0-2-.9-2-2v-4h12v4c0,1.1-.9,2-2,2h-.29Zm-6,0l1.76-1.76c.29-.29.77-.29,1.06,0l1.76,1.76h-4.59Zm8.29-7h-2.79l-1.97-1.97c-.68-.68-1.79-.68-2.47,0l-1.97,1.97h-2.79v-3c0-1.1.9-2,2-2h8c1.1,0,2,.9,2,2v3Zm-7.79,0l1.26-1.26c.29-.29.77-.29,1.06,0l1.26,1.26h-3.59Zm6.79-3c0,.55-.45,1-1,1s-1-.45-1-1,.45-1,1-1,1,.45,1,1Zm-1,7.5c.55,0,1-.45,1-1s-.45-1-1-1-1,.45-1,1,.45,1,1,1Z"/>
</svg>
