<?xml version="1.0" encoding="UTF-8"?>
<svg xmlns="http://www.w3.org/2000/svg" viewBox="0 0 16 16" fill="none">
  <path fill="currentColor" d="M12.5,2C11.7,2,11,2.7,11,3.5S11.7,5,12.5,5C13.3,5,14,4.3,14,3.5S13.3,2,12.5,2z M15.4,0.6C15,0.2,14.5,0,14,0  H2C1.5,0,1,0.2,0.6,0.6C0.2,1,0,1.5,0,2v8c0,0.5,0.2,1,0.6,1.4C1,11.8,1.5,12,2,12h4v3H3.5c-0.1,0-0.3,0.1-0.4,0.1  C3.1,15.2,3,15.4,3,15.5c0,0.1,0.1,0.3,0.1,0.4C3.2,15.9,3.4,16,3.5,16h9c0.1,0,0.3-0.1,0.4-0.1c0.1-0.1,0.1-0.2,0.1-0.4  c0-0.1-0.1-0.3-0.1-0.4S12.6,15,12.5,15H10v-3h4c0.5,0,1-0.2,1.4-0.6C15.8,11,16,10.5,16,10V2C16,1.5,15.8,1,15.4,0.6z M9,15H7v-3h2  V15z M2.7,11l3.9-3.9C6.8,7,7.2,7,7.4,7.1l3.9,3.9H2.7z M15,10c0,0.3-0.1,0.5-0.3,0.7S14.3,11,14,11h-1.3L8.1,6.4  c-0.6-0.6-1.5-0.6-2.1,0l-4.5,4.4c-0.1,0-0.1-0.1-0.2-0.1C1.1,10.5,1,10.3,1,10V2c0-0.3,0.1-0.5,0.3-0.7C1.5,1.1,1.7,1,2,1h12  c0.3,0,0.5,0.1,0.7,0.3C14.9,1.5,15,1.7,15,2V10z"/>
</svg>
