<?xml version="1.0" encoding="UTF-8"?>
<svg xmlns="http://www.w3.org/2000/svg" viewBox="0 0 16 16" fill="none">
  <path fill="currentColor" d="m4.15,8.15c-.2.2-.2.51,0,.71l3,3c.2.2.51.2.71,0l3-3c.2-.2.2-.51,0-.71-.2-.2-.51-.2-.71,0l-2.15,2.15V.5C8,.22,7.78,0,7.5,0s-.5.22-.5.5v9.79l-2.15-2.15c-.2-.2-.51-.2-.71,0ZM9,1.15v1.02c2.87.68,5,3.25,5,6.33,0,3.59-2.91,6.5-6.5,6.5S1,12.09,1,8.5c0-3.07,2.13-5.65,5-6.33v-1.02C2.58,1.85,0,4.87,0,8.5c0,4.14,3.36,7.5,7.5,7.5s7.5-3.36,7.5-7.5c0-3.63-2.58-6.66-6-7.35Z"/>
</svg>
