<?xml version="1.0" encoding="UTF-8"?>
<svg xmlns="http://www.w3.org/2000/svg" viewBox="0 0 16 16" fill="none">
  <path fill="currentColor" d="m5,2.5c-.6,0-1,.4-1,1s.4,1,1,1,1-.4,1-1c0-.5-.5-1-1-1Zm6.5.5h-4c-.3,0-.5.2-.5.5s.2.5.5.5h4c.3,0,.5-.2.5-.5s-.2-.5-.5-.5Zm-6.5,7.5c.6,0,1-.4,1-1,0-.5-.5-1-1-1-.6,0-1,.4-1,1s.4,1,1,1Zm2.5-.5h4c.3,0,.5-.2.5-.5s-.2-.5-.5-.5h-4c-.3,0-.5.2-.5.5s.2.5.5.5Zm-2.5,3.5c.6,0,1-.4,1-1,0-.5-.5-1-1-1-.6,0-1,.4-1,1s.4,1,1,1Zm2.5-.5h4c.3,0,.5-.2.5-.5s-.2-.5-.5-.5h-4c-.3,0-.5.2-.5.5s.2.5.5.5ZM12,0H4c-1.1,0-2,1-2,2v12c0,1.1,1,2,2,2h8c1.1,0,2-1,2-2V2c0-1.1-1-2-2-2Zm1,14c0,.6-.4,1-1,1H4c-.6,0-1-.4-1-1v-7h10v7Zm0-8H3V2c0-.6.4-1,1-1h8c.5,0,1,.5,1,1v4Z"/>
</svg>
